<svg width="24" height="24" viewBox="0 0 24 24" fill="none" xmlns="http://www.w3.org/2000/svg">
<g clip-path="url(#clip0_127_1268)">
<path d="M18.0065 14.4486L16.7346 13.1767C16.5639 13.0056 16.3575 12.8741 16.1303 12.7917C15.903 12.7092 15.6604 12.6778 15.4196 12.6997C15.1788 12.721 14.9457 12.7951 14.7367 12.9166C14.5277 13.0382 14.3481 13.2042 14.2105 13.403L13.7675 14.0415C13.1649 13.9341 11.9993 13.6303 11.1845 12.8155C10.3694 12.0003 10.0656 10.8342 9.95849 10.2325L10.5971 9.78943C10.7959 9.65184 10.962 9.47217 11.0835 9.26318C11.205 9.0542 11.2791 8.82102 11.3003 8.5802C11.3222 8.33946 11.2908 8.09685 11.2084 7.86961C11.1259 7.64237 10.9945 7.43607 10.8233 7.26535L9.55143 5.99345C9.0403 5.48237 8.26991 5.3604 7.63429 5.68974C6.51979 6.26715 5.78769 7.34949 5.57263 8.73737C5.22233 10.9986 6.26769 13.6662 8.30071 15.6992C10.0738 17.4723 12.3295 18.4941 14.3773 18.4941C14.6776 18.4941 14.9735 18.4721 15.2625 18.4274C16.6505 18.2124 17.7328 17.4802 18.3102 16.3658C18.6395 15.73 18.5175 14.9596 18.0065 14.4486ZM17.0161 15.6953C16.5572 16.5809 15.6879 16.8865 15.0395 16.987C13.2566 17.2631 11.0159 16.3532 9.3313 14.6686C7.64675 12.984 6.73672 10.7435 7.01291 8.96049C7.11332 8.31202 7.41904 7.44277 8.30469 6.98387C8.32866 6.97163 8.35522 6.96531 8.38213 6.96545C8.43163 6.96545 8.48244 6.98584 8.52069 7.02404L9.79265 8.29599C9.84547 8.34891 9.85222 8.40901 9.84852 8.45012C9.84482 8.49127 9.82757 8.54921 9.76607 8.59187L8.7614 9.28899C8.65809 9.36068 8.57509 9.45787 8.52047 9.57112C8.46585 9.68438 8.44146 9.80984 8.44968 9.93531C8.456 10.0317 8.62176 12.3139 10.1538 13.846C11.6859 15.3781 13.9681 15.5439 14.0645 15.5502C14.19 15.5583 14.3154 15.5339 14.4287 15.4792C14.5419 15.4246 14.6391 15.3417 14.7109 15.2384L15.408 14.2337C15.4506 14.1723 15.5086 14.155 15.5497 14.1513C15.5909 14.1475 15.6509 14.1544 15.7039 14.2073L16.9758 15.4791C17.0349 15.5382 17.0514 15.6271 17.0161 15.6953Z" fill="white"/>
<path d="M20.4851 3.51487C18.2185 1.24823 15.205 0 11.9995 0C8.79401 0 5.78051 1.24823 3.51392 3.51483C1.58749 5.44125 0.364526 7.99083 0.0701507 10.6939C-0.208146 13.2493 0.347229 15.8504 1.63573 18.0552L0.385198 22.7222C0.352125 22.8458 0.352151 22.9758 0.385272 23.0994C0.418394 23.2229 0.483444 23.3356 0.57389 23.4261C0.664336 23.5165 0.776991 23.5816 0.90054 23.6147C1.02409 23.6478 1.15418 23.6478 1.27774 23.6148L5.94471 22.3643C7.77771 23.4355 9.8847 24 12.0115 24C12.4429 24 12.8751 23.9768 13.306 23.9298C16.0091 23.6355 18.5587 22.4125 20.4851 20.486C22.7517 18.2195 24 15.2059 24 12.0005C24 8.79506 22.7517 5.78147 20.4851 3.51487ZM19.4545 19.4554C15.9702 22.9396 10.6185 23.5588 6.44023 20.9612C6.35553 20.9086 6.26095 20.8739 6.16232 20.8593C6.0637 20.8447 5.96312 20.8504 5.86681 20.8762L2.11976 21.8802L3.12382 18.1332C3.14961 18.0369 3.15537 17.9363 3.14074 17.8377C3.12612 17.7391 3.09142 17.6445 3.03879 17.5598C0.44112 13.3814 1.06034 8.02969 4.54451 4.54547C8.65526 0.434813 15.3438 0.434813 19.4545 4.54547C23.5651 8.65613 23.5651 15.3447 19.4545 19.4554Z" fill="white"/>
</g>
<defs>
<clipPath id="clip0_127_1268">
<rect width="24" height="24" fill="white"/>
</clipPath>
</defs>
</svg>
