<svg width="36" height="36" viewBox="0 0 60 60" fill="none" xmlns="http://www.w3.org/2000/svg">
<g id="Frame">
<g id="Group">
<path id="Vector" d="M32.321 28.7737C38.3197 28.7286 44.3184 28.6925 50.317 28.6316C51.5127 28.6193 52.71 28.5325 53.901 28.424C54.0981 28.4043 54.2841 28.3299 54.4347 28.2105C54.5854 28.0911 54.6935 27.9323 54.745 27.7549C54.8427 27.471 54.5027 27.0682 54.0967 27.0092C53.703 26.9517 53.311 26.8627 52.9154 26.8405C50.3877 26.6984 47.8604 26.4976 45.3304 26.4553C40.1327 26.3688 34.9334 26.3472 29.7344 26.3413C24.802 26.336 19.8694 26.3932 14.937 26.404C14.145 26.4058 13.3527 26.3132 12.562 26.2477C12.5096 26.2357 12.4612 26.2117 12.4213 26.1778C12.3815 26.144 12.3515 26.1014 12.334 26.054C12.3197 25.9409 12.356 25.75 12.4374 25.7095C13.9527 24.9459 15.45 24.1427 17.0087 23.4612C20.6344 21.8758 24.0357 19.9318 27.4347 17.981C27.9934 17.6606 28.5787 17.335 28.804 16.6989C28.845 16.5831 28.9087 16.3848 28.8567 16.3462C28.6702 16.1851 28.4436 16.0693 28.197 16.0091C27.9345 15.9804 27.6685 16.0198 27.4287 16.1228C26.578 16.4772 25.7381 16.8535 24.91 17.2513C19.003 20.1085 13.108 22.9836 7.19771 25.8334C4.96837 26.9082 3.90904 27.9504 6.58537 30.3128C7.35637 30.9942 8.13604 31.6742 8.97471 32.2797C12.8626 35.0913 16.7648 37.8857 20.6814 40.6628C21.2199 41.0211 21.7879 41.3398 22.38 41.6159C22.766 41.8102 23.1527 41.6946 23.486 41.462C23.853 41.2056 24.0807 40.4599 23.9544 40.1321C23.673 39.4043 23.113 38.8702 22.5117 38.3867C20.196 36.525 17.8678 34.6765 15.5274 32.8416C14.0064 31.6427 12.4694 30.461 10.9507 29.2597C10.8757 29.2 10.872 29.0162 10.9024 28.9056C10.9223 28.8577 10.9545 28.8149 10.9962 28.781C11.0379 28.7471 11.0878 28.7231 11.1417 28.711C11.935 28.6631 12.7304 28.6017 13.525 28.6054C19.7904 28.6363 26.056 28.6743 32.3217 28.7203L32.321 28.7737Z" fill="white" fill-opacity="1"/>
</g>
</g>
</svg>
