<svg width="60" height="60" viewBox="0 0 60 60" fill="none" xmlns="http://www.w3.org/2000/svg">
<g id="Frame">
<g id="Group">
<path id="Vector" d="M27.679 28.7737C21.6803 28.7286 15.6816 28.6925 9.68296 28.6316C8.48729 28.6193 7.28996 28.5325 6.09896 28.424C5.9019 28.4043 5.71587 28.3299 5.56526 28.2105C5.41465 28.0911 5.30649 27.9323 5.25496 27.7549C5.15729 27.471 5.49729 27.0682 5.90329 27.0092C6.29696 26.9517 6.68896 26.8627 7.08462 26.8405C9.61229 26.6984 12.1396 26.4976 14.6696 26.4553C19.8673 26.3688 25.0666 26.3472 30.2656 26.3413C35.198 26.336 40.1306 26.3932 45.063 26.404C45.855 26.4058 46.6473 26.3132 47.438 26.2477C47.4904 26.2357 47.5388 26.2117 47.5787 26.1778C47.6185 26.144 47.6485 26.1014 47.666 26.054C47.6803 25.9409 47.644 25.75 47.5626 25.7095C46.0473 24.9459 44.55 24.1427 42.9913 23.4612C39.3656 21.8758 35.9643 19.9318 32.5653 17.981C32.0066 17.6606 31.4213 17.335 31.196 16.6989C31.155 16.5831 31.0913 16.3848 31.1433 16.3462C31.3298 16.1851 31.5564 16.0693 31.803 16.0091C32.0655 15.9804 32.3315 16.0198 32.5713 16.1228C33.422 16.4772 34.2619 16.8535 35.09 17.2513C40.997 20.1085 46.892 22.9836 52.8023 25.8334C55.0316 26.9082 56.091 27.9504 53.4146 30.3128C52.6436 30.9942 51.864 31.6742 51.0253 32.2797C47.1374 35.0913 43.2352 37.8857 39.3186 40.6628C38.7801 41.0211 38.2121 41.3398 37.62 41.6159C37.234 41.8102 36.8473 41.6946 36.514 41.462C36.147 41.2056 35.9193 40.4599 36.0456 40.1321C36.327 39.4043 36.887 38.8702 37.4883 38.3867C39.804 36.525 42.1322 34.6765 44.4726 32.8416C45.9936 31.6427 47.5306 30.461 49.0493 29.2597C49.1243 29.2 49.128 29.0162 49.0976 28.9056C49.0777 28.8577 49.0455 28.8149 49.0038 28.781C48.9621 28.7471 48.9122 28.7231 48.8583 28.711C48.065 28.6631 47.2696 28.6017 46.475 28.6054C40.2096 28.6363 33.944 28.6743 27.6783 28.7203L27.679 28.7737Z" fill="white"/>
</g>
</g>
</svg>
