<svg width="24" height="24" viewBox="0 0 24 24" fill="none" xmlns="http://www.w3.org/2000/svg">
<path d="M17.4208 0H6.57923C2.95144 0 0 2.95144 0 6.57928V17.4208C0 21.0486 2.95144 24 6.57923 24H17.4208C21.0486 24 24 21.0486 24 17.4208V6.57928C24 2.95144 21.0486 0 17.4208 0ZM22.5827 17.4208C22.5827 20.2671 20.2671 22.5827 17.4208 22.5827H6.57923C3.73294 22.5827 1.41731 20.2671 1.41731 17.4208V6.57928C1.41731 3.73294 3.73294 1.41731 6.57923 1.41731H17.4208C20.2671 1.41731 22.5827 3.73294 22.5827 6.57928V17.4208Z" fill="white"/>
<path d="M11.9997 5.4172C8.36998 5.4172 5.41699 8.37019 5.41699 11.9999C5.41699 15.6296 8.36993 18.5826 11.9997 18.5826C15.6294 18.5826 18.5824 15.6296 18.5824 11.9999C18.5824 8.37014 15.6294 5.4172 11.9997 5.4172ZM11.9997 17.1653C9.15148 17.1653 6.83426 14.8481 6.83426 11.9999C6.83426 9.15164 9.15148 6.83442 11.9997 6.83442C14.848 6.83442 17.1652 9.15169 17.1652 11.9999C17.1652 14.8481 14.848 17.1653 11.9997 17.1653ZM18.9761 3.02344C17.8734 3.02344 16.9762 3.92067 16.9762 5.02345C16.9762 6.12623 17.8734 7.02342 18.9761 7.02342C20.0789 7.02342 20.9761 6.12619 20.9761 5.02341C20.9761 3.92063 20.0789 3.02344 18.9761 3.02344ZM18.9761 5.60606C18.6549 5.60606 18.3935 5.34469 18.3935 5.02341C18.3935 4.70213 18.6549 4.44075 18.9761 4.44075C19.2974 4.44075 19.5588 4.70217 19.5588 5.02341C19.5588 5.34464 19.2974 5.60606 18.9761 5.60606Z" fill="white"/>
</svg>
